<svg height="512pt" viewBox="0 0 512 512" width="512pt" xmlns="http://www.w3.org/2000/svg"><path d="m512 256c0 129.808594-96.621094 237.054688-221.863281 253.734375-11.167969 1.503906-22.558594 2.265625-34.136719 2.265625-141.386719 0-256-114.613281-256-256 0-42.046875 10.136719-81.742188 28.109375-116.746094 42.441406-82.683594 128.5625-139.253906 227.890625-139.253906 141.386719 0 256 114.613281 256 256zm0 0" fill="#3fc37c"/><path d="m290.136719 139.253906v370.480469c-11.167969 1.503906-22.558594 2.265625-34.136719 2.265625-84.09375 0-158.71875-40.550781-205.394531-103.164062-7.628907-10.226563-14.503907-21.054688-20.554688-32.390626-5.726562-10.710937-10.710937-21.878906-14.878906-33.4375-3.804687-10.488281-6.925781-21.304687-9.332031-32.390624-3.824219-17.597657-5.839844-35.882813-5.839844-54.617188 0-42.046875 10.136719-81.742188 28.109375-116.746094zm0 0" fill="#fcf8f2"/><path d="m254.785156 394.316406-81.371094 11.179688-29.972656 4.117187c-22.375 3.074219-41.5-16.054687-38.425781-38.425781l4.117187-29.972656 11.179688-81.371094 95.5625 49.25zm0 0" fill="#fecf32"/><path d="m320.792969 59.359375 134.46875 134.472656-200.472657 200.476563-134.472656-134.472656zm0 0" fill="#fb3a4a"/><path d="m455.265625 193.835938-134.472656-134.472657-200.476563 200.476563 43.59375 43.59375 139.101563-139.101563c14.71875-14.71875 38.578125-14.71875 53.296875 0l64.230468 64.230469zm0 0" fill="#dd104f"/><path d="m496.40625 152.695312-35.746094 35.746094c-4.816406 4.816406-12.621094 4.816406-17.4375 0l-117.035156-117.035156c-4.816406-4.816406-4.816406-12.621094 0-17.4375l35.746094-35.746094c17.265625-17.265625 45.269531-17.265625 62.539062 0l71.933594 71.933594c17.265625 17.269531 17.265625 45.273438 0 62.539062zm0 0" fill="#e5e1dc"/><path d="m496.40625 152.695312-35.746094 35.746094c-4.816406 4.816406-12.621094 4.816406-17.4375 0l-81.570312-81.570312c-4.816406-4.816406-4.816406-12.621094 0-17.4375l35.746094-35.746094c17.265624-17.265625 45.269531-17.265625 62.535156 0l36.472656 36.46875c17.265625 17.269531 17.265625 45.273438 0 62.539062zm0 0" fill="#fcf8f2"/><path d="m460.808594 206.027344c-9.589844 9.589844-25.136719 9.589844-34.726563 0l-117.480469-117.480469c-4.792968-4.792969-7.1875-11.074219-7.195312-17.363281.007812-6.285156 2.402344-12.566406 7.195312-17.363282 9.59375-9.589843 25.136719-9.589843 34.726563 0l117.480469 117.480469c4.792968 4.792969 7.1875 11.074219 7.195312 17.363281-.007812 6.285157-2.402344 12.566407-7.195312 17.363282zm0 0" fill="#fdae2f"/><path d="m460.808594 206.027344c-9.589844 9.589844-25.136719 9.589844-34.726563 0l-84.96875-84.96875c-4.796875-4.796875-7.1875-11.078125-7.195312-17.363282.007812-6.289062 2.398437-12.570312 7.195312-17.363281 9.589844-9.589843 25.136719-9.589843 34.726563 0l84.96875 84.96875c4.792968 4.792969 7.1875 11.074219 7.195312 17.363281-.007812 6.285157-2.402344 12.566407-7.195312 17.363282zm0 0" fill="#fecf32"/><path d="m114.683594 399.945312c-7.195313-7.195312-11.199219-17.570312-9.664063-28.757812l4.117188-29.972656 11.179687-81.371094 43.589844 43.589844-33.933594 58.613281-12.503906 21.589844c-4.660156 8.0625-5.320312 13.773437-2.785156 16.308593zm0 0" fill="#fdae2f"/><path d="m173.414062 405.492188-29.972656 4.117187c-11.1875 1.535156-21.558594-2.46875-28.757812-9.664063-7.195313-7.195312-11.199219-17.570312-9.664063-28.757812l4.117188-29.972656c9.542969 1.300781 18.882812 4.433594 27.453125 9.398437 5.542968 3.203125 10.757812 7.179688 15.503906 11.921875 12.070312 12.074219 19.1875 27.242188 21.320312 42.957032zm0 0" fill="#304e87"/><path d="m114.683594 399.945312c-7.195313-7.195312-11.199219-17.570312-9.664063-28.757812l4.117188-29.972656c9.542969 1.300781 18.882812 4.433594 27.453125 9.398437l-6.621094 11.433594-12.5 21.589844c-4.660156 8.0625-5.320312 13.773437-2.785156 16.308593zm0 0" fill="#1f3f72"/><g fill="#304e87"><path d="m83.59375 376.445312v32.390626h-32.988281c-7.628907-10.226563-14.503907-21.054688-20.554688-32.390626zm0 0"/><path d="m83.59375 310.617188v32.390624h-68.421875c-3.804687-10.488281-6.925781-21.304687-9.332031-32.390624zm0 0"/></g></svg>