<svg height="409pt" viewBox="0 -10 409.6 409" width="409pt" xmlns="http://www.w3.org/2000/svg"><path d="m68.265625 7.125h266.242187v354.988281h-266.242187zm0 0" fill="#0e65e5"/><path d="m334.507812 368.941406h-266.242187c-3.769531 0-6.824219-3.058594-6.824219-6.828125v-354.988281c0-3.769531 3.054688-6.824219 6.824219-6.824219h266.242187c3.769532 0 6.824219 3.054688 6.824219 6.824219v354.988281c0 3.769531-3.054687 6.828125-6.824219 6.828125zm-259.414062-13.65625h252.585938v-341.332031h-252.585938zm0 0" fill="#0e65e5"/><path d="m88.746094 27.605469h266.242187v354.988281h-266.242187zm0 0" fill="#94c1ff"/><g fill="#0e65e5"><path d="m354.988281 389.421875h-266.242187c-3.769532 0-6.824219-3.058594-6.824219-6.828125v-354.988281c0-3.769531 3.054687-6.824219 6.824219-6.824219h266.242187c3.769531 0 6.824219 3.054688 6.824219 6.824219v354.988281c0 3.769531-3.054688 6.828125-6.824219 6.828125zm-259.414062-13.65625h252.585937v-341.332031h-252.585937zm0 0"/><path d="m163.125 126.476562-11.023438-40.886718-11.164062 40.886718c-.867188 3.101563-1.558594 5.324219-2.070312 6.671876-.511719 1.351562-1.402344 2.558593-2.671876 3.628906-1.273437 1.070312-2.964843 1.605468-5.070312 1.605468-1.707031 0-3.113281-.320312-4.210938-.953124-1.101562-.636719-1.996093-1.535157-2.675781-2.699219-.679687-1.160157-1.242187-2.539063-1.675781-4.140625-.433594-1.597656-.816406-3.078125-1.164062-4.441406l-11.347657-45.910157c-.679687-2.664062-1.023437-4.699219-1.023437-6.09375 0-1.765625.621094-3.253906 1.863281-4.464843 1.242187-1.210938 2.773437-1.8125 4.601563-1.8125 2.515624 0 4.203124.808593 5.070312 2.417968s1.632812 3.953125 2.28125 7.023438l8.929688 39.816406 10-37.257812c.746093-2.855469 1.414062-5.023438 2-6.511719.589843-1.488281 1.550781-2.773438 2.886718-3.863281 1.328125-1.082032 3.144532-1.625 5.441406-1.625 2.324219 0 4.132813.566406 5.417969 1.695312 1.289063 1.132812 2.175781 2.367188 2.671875 3.699219.5 1.335937 1.164063 3.535156 2 6.605469l10.09375 37.257812 8.933594-39.816406c.433594-2.074219.84375-3.707032 1.230469-4.882813.390625-1.179687 1.058593-2.234375 2-3.164062.949219-.929688 2.320312-1.394531 4.117187-1.394531 1.800782 0 3.324219.597656 4.582032 1.789062 1.257812 1.195312 1.886718 2.691406 1.886718 4.492188 0 1.269531-.339844 3.304687-1.023437 6.09375l-11.351563 45.90625c-.773437 3.101562-1.414062 5.375-1.929687 6.8125-.511719 1.445312-1.378907 2.707031-2.601563 3.792968-1.226562 1.085938-2.953125 1.628906-5.1875 1.628906-2.109375 0-3.800781-.527343-5.070312-1.582031-1.273438-1.054687-2.15625-2.242187-2.652344-3.558593-.5-1.316407-1.195312-3.570313-2.09375-6.765626zm0 0"/><path d="m320.851562 130.007812h-109.226562c-3.769531 0-6.824219-3.058593-6.824219-6.828124 0-3.769532 3.054688-6.828126 6.824219-6.828126h109.226562c3.773438 0 6.828126 3.058594 6.828126 6.828126 0 3.769531-3.054688 6.828124-6.828126 6.828124zm0 0"/><path d="m320.851562 170.964844h-163.839843c-3.769531 0-6.824219-3.054688-6.824219-6.824219s3.054688-6.828125 6.824219-6.828125h163.839843c3.773438 0 6.828126 3.058594 6.828126 6.828125s-3.054688 6.824219-6.828126 6.824219zm0 0"/><path d="m320.851562 211.925781h-163.839843c-3.769531 0-6.824219-3.054687-6.824219-6.824219 0-3.773437 3.054688-6.828124 6.824219-6.828124h163.839843c3.773438 0 6.828126 3.054687 6.828126 6.828124 0 3.769532-3.054688 6.824219-6.828126 6.824219zm0 0"/><path d="m320.851562 252.886719h-163.839843c-3.769531 0-6.824219-3.058594-6.824219-6.828125 0-3.769532 3.054688-6.824219 6.824219-6.824219h163.839843c3.773438 0 6.828126 3.054687 6.828126 6.824219 0 3.769531-3.054688 6.828125-6.828126 6.828125zm0 0"/><path d="m320.851562 293.847656h-163.839843c-3.769531 0-6.824219-3.058594-6.824219-6.828125s3.054688-6.828125 6.824219-6.828125h163.839843c3.773438 0 6.828126 3.058594 6.828126 6.828125s-3.054688 6.828125-6.828126 6.828125zm0 0"/><path d="m211.625 334.808594h-54.613281c-3.769531 0-6.824219-3.058594-6.824219-6.828125s3.054688-6.828125 6.824219-6.828125h54.613281c3.773438 0 6.828125 3.058594 6.828125 6.828125s-3.054687 6.828125-6.828125 6.828125zm0 0"/><path d="m20.480469 54.914062c-3.769531 0-6.828125-3.058593-6.828125-6.828124v-27.304688c0-3.769531 3.058594-6.828125 6.828125-6.828125s6.828125 3.058594 6.828125 6.828125v27.304688c0 3.769531-3.058594 6.828124-6.828125 6.828124zm0 0"/><path d="m34.132812 41.261719h-27.304687c-3.773437 0-6.828125-3.058594-6.828125-6.828125 0-3.769532 3.054688-6.828125 6.828125-6.828125h27.304687c3.769532 0 6.828126 3.058593 6.828126 6.828125 0 3.769531-3.058594 6.828125-6.828126 6.828125zm0 0"/><path d="m389.121094 368.941406c-3.769532 0-6.828125-3.058594-6.828125-6.828125v-27.304687c0-3.773438 3.058593-6.828125 6.828125-6.828125 3.769531 0 6.824218 3.054687 6.824218 6.828125v27.304687c0 3.769531-3.054687 6.828125-6.824218 6.828125zm0 0"/><path d="m402.773438 355.285156h-27.308594c-3.769532 0-6.824219-3.054687-6.824219-6.824218 0-3.769532 3.054687-6.828126 6.824219-6.828126h27.308594c3.769531 0 6.828124 3.058594 6.828124 6.828126 0 3.769531-3.058593 6.824218-6.828124 6.824218zm0 0"/></g><path d="m109.226562 362.113281c-3.769531 0-6.828124-3.054687-6.828124-6.828125v-61.4375c0-3.769531 3.058593-6.828125 6.828124-6.828125 3.769532 0 6.828126 3.058594 6.828126 6.828125v61.4375c0 3.773438-3.058594 6.828125-6.828126 6.828125zm0 0" fill="#fff"/></svg>