<svg height="512pt" viewBox="0 0 512 511" width="512pt" xmlns="http://www.w3.org/2000/svg"><path d="m496.824219 90.574219h-481.648438c-8.382812 0-15.175781 6.796875-15.175781 15.175781v352.589844c0 29.859375 24.296875 54.148437 54.160156 54.148437h403.679688c29.863281 0 54.160156-24.289062 54.160156-54.148437v-352.589844c0-8.378906-6.792969-15.175781-15.175781-15.175781zm0 0" fill="#f2f6fc"/><path d="m496.824219 90.574219h-240.828125v421.914062h201.84375c29.863281 0 54.160156-24.289062 54.160156-54.148437v-352.589844c0-8.378906-6.792969-15.175781-15.175781-15.175781zm0 0" fill="#dce1eb"/><path d="m273.421875 176.355469c-17.074219-7.074219-36.550781-3.199219-49.613281 9.867187l-68.4375 68.4375c-17.75 17.75-17.75 46.636719 0 64.386719 8.597656 8.597656 20.03125 13.335937 32.191406 13.335937 8.179688 0 16.03125-2.144531 22.910156-6.160156v100.25c0 25.105469 20.421875 45.527344 45.527344 45.527344s45.527344-20.421875 45.527344-45.527344v-208.054687c0-18.480469-11.03125-34.992188-28.105469-42.0625zm0 0" fill="#ff468c"/><path d="m457.839844.5h-403.679688c-29.914062 0-54.160156 24.25-54.160156 54.160156v66.269532h512v-66.269532c0-29.910156-24.25-54.160156-54.160156-54.160156zm0 0" fill="#27488f"/><path d="m457.839844.5h-201.84375v120.425781h256.003906v-66.265625c0-29.910156-24.25-54.160156-54.160156-54.160156zm0 0" fill="#1b3b6b"/><path d="m89.539062 76.75c7.9375 0 15.542969-6.980469 15.175782-15.175781-.367188-8.222657-6.667969-15.179688-15.175782-15.179688-7.9375 0-15.542968 6.980469-15.175781 15.179688.367188 8.21875 6.667969 15.175781 15.175781 15.175781zm0 0" fill="#fffd78"/><path d="m422.460938 76.75c7.9375 0 15.542968-6.980469 15.175781-15.175781-.371094-8.222657-6.667969-15.179688-15.175781-15.179688-7.941407 0-15.542969 6.980469-15.175782 15.179688.367188 8.21875 6.667969 15.175781 15.175782 15.175781zm0 0" fill="#ffe733"/><path d="m273.421875 176.355469c-5.652344-2.339844-11.5625-3.476563-17.421875-3.480469v299.125c25.105469 0 45.527344-20.421875 45.527344-45.527344v-208.054687c0-18.480469-11.03125-34.992188-28.105469-42.0625zm0 0" fill="#d72878"/></svg>